<svg xmlns="http://www.w3.org/2000/svg" viewBox="0 0 960 472" role="img" aria-label="A13 Crush 架构示意"><title>A13 Crush 架构示意</title><defs><marker id="arrow" markerWidth="8" markerHeight="8" refX="7" refY="4" orient="auto"><path d="M0 0 L8 4 L0 8" fill="none" stroke="#508984" stroke-width="1.3"/></marker></defs><style>text{font-family:system-ui,-apple-system,'PingFang SC','Microsoft YaHei',sans-serif}</style><rect width="960" height="472" rx="16" fill="#f3f7f6"/><text x="30" y="35" font-size="19" font-weight="600" fill="#163d34">A13 · Crush</text><rect x="30" y="75" width="265" height="86" rx="10" fill="#ffffff" stroke="#adc9bf"/><text x="162.5" y="110" text-anchor="middle" font-size="15" fill="#24453c">终端界面</text><text x="162.5" y="135" text-anchor="middle" font-size="15" fill="#24453c">输入、状态与审阅</text><rect x="347" y="75" width="265" height="86" rx="10" fill="#dceee9" stroke="#adc9bf"/><text x="479.5" y="110" text-anchor="middle" font-size="15" fill="#24453c">Coordinator</text><text x="479.5" y="135" text-anchor="middle" font-size="15" fill="#24453c">代理、模型与运行衔接</text><rect x="664" y="75" width="265" height="86" rx="10" fill="#ffffff" stroke="#adc9bf"/><text x="796.5" y="110" text-anchor="middle" font-size="15" fill="#24453c">大／小模型配置</text><text x="796.5" y="135" text-anchor="middle" font-size="15" fill="#24453c">主任务及辅助调用</text><rect x="30" y="305" width="265" height="86" rx="10" fill="#dceee9" stroke="#adc9bf"/><text x="162.5" y="340" text-anchor="middle" font-size="15" fill="#24453c">会话与自动摘要</text><text x="162.5" y="365" text-anchor="middle" font-size="15" fill="#24453c">保存和继续</text><rect x="347" y="305" width="265" height="86" rx="10" fill="#ffffff" stroke="#adc9bf"/><text x="479.5" y="340" text-anchor="middle" font-size="15" fill="#24453c">文件／命令／LSP／MCP</text><text x="479.5" y="365" text-anchor="middle" font-size="15" fill="#24453c">执行与观察</text><rect x="664" y="305" width="265" height="86" rx="10" fill="#ffffff" stroke="#adc9bf"/><text x="796.5" y="340" text-anchor="middle" font-size="15" fill="#24453c">Agent 层</text><text x="796.5" y="365" text-anchor="middle" font-size="15" fill="#24453c">工具、消息与队列</text><path d="M295 118 H344" fill="none" stroke="#508984" stroke-width="1.7" marker-end="url(#arrow)"/><path d="M612 118 H661" fill="none" stroke="#508984" stroke-width="1.7" marker-end="url(#arrow)"/><path d="M796 161 V302" fill="none" stroke="#508984" stroke-width="1.7" marker-end="url(#arrow)"/><path d="M664 348 H615" fill="none" stroke="#508984" stroke-width="1.7" marker-end="url(#arrow)"/><path d="M347 348 H298" fill="none" stroke="#508984" stroke-width="1.7" marker-end="url(#arrow)"/><path d="M162 305 V238 H479 V164" fill="none" stroke="#508984" stroke-width="1.7" marker-end="url(#arrow)"/><text x="255" y="225" font-size="13" fill="#58756b">结果回到当前任务</text><text x="30" y="437" font-size="13" fill="#60796f">公开源码与文档中的关键责任分工；图中能力不表示每种入口与安装方式都默认开放。</text></svg>