<svg xmlns="http://www.w3.org/2000/svg" viewBox="0 0 960 630" role="img" aria-label="B13 · 从需求到可运行应用的环境链"><title>B13 · 从需求到可运行应用的环境链</title><desc>本图为相邻正文所述的架构切面。箭头表示主要信息或控制交接；具体证据和省略范围见正文。</desc><defs><marker id="arrow" markerWidth="8" markerHeight="8" refX="7" refY="4" orient="auto"><path d="M0 0 L8 4 L0 8" fill="none" stroke="#508984" stroke-width="1.3"/></marker></defs><style>text{font-family:system-ui,-apple-system,'PingFang SC','Microsoft YaHei',sans-serif}</style><rect width="960" height="630" rx="16" fill="#f3f7f6"/><text x="40" y="38" font-size="20" font-weight="600" fill="#163d34">B13 · 从需求到可运行应用的环境链</text><text x="40" y="66" font-size="14" fill="#60796f">深入一层 · 模块、交接与状态；配合图下的机制表阅读</text><path class="edge-halo" d="M300 150 L350 150" fill="none" stroke="#f3f7f6" stroke-width="6"/><path data-edge="1-2" d="M300 150 L350 150" fill="none" stroke="#508984" stroke-width="1.7" marker-end="url(#arrow)"/><path class="edge-halo" d="M610 150 L660 150" fill="none" stroke="#f3f7f6" stroke-width="6"/><path data-edge="2-3" d="M610 150 L660 150" fill="none" stroke="#508984" stroke-width="1.7" marker-end="url(#arrow)"/><path class="edge-halo" d="M660 170 L630 170 L630 250 L320 250 L320 300 L300 300" fill="none" stroke="#f3f7f6" stroke-width="6"/><path data-edge="3-4" d="M660 170 L630 170 L630 250 L320 250 L320 300 L300 300" fill="none" stroke="#508984" stroke-width="1.7" marker-end="url(#arrow)"/><path class="edge-halo" d="M300 320 L350 320" fill="none" stroke="#f3f7f6" stroke-width="6"/><path data-edge="4-5" d="M300 320 L350 320" fill="none" stroke="#508984" stroke-width="1.7" marker-end="url(#arrow)"/><path class="edge-halo" d="M610 320 L660 320" fill="none" stroke="#f3f7f6" stroke-width="6"/><path data-edge="5-6" d="M610 320 L660 320" fill="none" stroke="#508984" stroke-width="1.7" marker-end="url(#arrow)"/><path class="edge-halo" d="M660 300 L610 300" fill="none" stroke="#f3f7f6" stroke-width="6"/><path data-edge="6-5" d="M660 300 L610 300" fill="none" stroke="#508984" stroke-width="1.7" marker-end="url(#arrow)"/><path class="edge-halo" d="M480 370 L480 440" fill="none" stroke="#f3f7f6" stroke-width="6"/><path data-edge="5-7" d="M480 370 L480 440" fill="none" stroke="#508984" stroke-width="1.7" marker-end="url(#arrow)"/><path class="edge-halo" d="M610 490 L660 490" fill="none" stroke="#f3f7f6" stroke-width="6"/><path data-edge="7-8" d="M610 490 L660 490" fill="none" stroke="#508984" stroke-width="1.7" marker-end="url(#arrow)"/><rect data-node="1" x="40" y="100" width="260" height="100" rx="12" fill="#ffffff" stroke="#adc9bf"/><text x="170.0" y="144.0" font-size="16" text-anchor="middle" fill="#24453c">自然语言目标</text><text x="170.0" y="168.0" font-size="16" text-anchor="middle" fill="#24453c">应用、页面或其他产物</text><rect data-node="2" x="350" y="100" width="260" height="100" rx="12" fill="#dceee9" stroke="#adc9bf"/><text x="480.0" y="144.0" font-size="16" text-anchor="middle" fill="#24453c">项目与产品需求</text><text x="480.0" y="168.0" font-size="16" text-anchor="middle" fill="#24453c">数据、角色及约束</text><rect data-node="3" x="660" y="100" width="260" height="100" rx="12" fill="#ffffff" stroke="#adc9bf"/><text x="790.0" y="144.0" font-size="16" text-anchor="middle" fill="#24453c">开发环境准备</text><text x="790.0" y="168.0" font-size="16" text-anchor="middle" fill="#24453c">依赖和可用服务</text><rect data-node="4" x="40" y="270" width="260" height="100" rx="12" fill="#ffffff" stroke="#adc9bf"/><text x="170.0" y="314.0" font-size="16" text-anchor="middle" fill="#24453c">Replit Agent</text><text x="170.0" y="338.0" font-size="16" text-anchor="middle" fill="#24453c">计划与多轮实施</text><rect data-node="5" x="350" y="270" width="260" height="100" rx="12" fill="#dceee9" stroke="#adc9bf"/><text x="480.0" y="314.0" font-size="16" text-anchor="middle" fill="#24453c">代码与项目工具</text><text x="480.0" y="338.0" font-size="16" text-anchor="middle" fill="#24453c">生成、编辑和运行</text><rect data-node="6" x="660" y="270" width="260" height="100" rx="12" fill="#ffffff" stroke="#adc9bf"/><text x="790.0" y="314.0" font-size="16" text-anchor="middle" fill="#24453c">应用预览与测试</text><text x="790.0" y="338.0" font-size="16" text-anchor="middle" fill="#24453c">反馈真实运行状态</text><rect data-node="7" x="350" y="440" width="260" height="100" rx="12" fill="#ffffff" stroke="#adc9bf"/><text x="480.0" y="484.0" font-size="16" text-anchor="middle" fill="#24453c">项目与部署材料</text><text x="480.0" y="508.0" font-size="16" text-anchor="middle" fill="#24453c">文件、配置及产物</text><rect data-node="8" x="660" y="440" width="260" height="100" rx="12" fill="#ffffff" stroke="#adc9bf"/><text x="790.0" y="484.0" font-size="16" text-anchor="middle" fill="#24453c">用户验收与发布选择</text><text x="790.0" y="508.0" font-size="16" text-anchor="middle" fill="#24453c">确认行为和运行成本</text><text x="40" y="600" font-size="14" fill="#60796f">主路径经过裁剪；同色框仅用于突出阅读重点，不代表相同进程或权限。</text></svg>